<?xml version="1.0" encoding="UTF-8"?>
<svg version="1.1" xmlns="http://www.w3.org/2000/svg" width="1056" height="992">
<path d="M0 0 C348.48 0 696.96 0 1056 0 C1056 327.36 1056 654.72 1056 992 C707.52 992 359.04 992 0 992 C0 664.64 0 337.28 0 0 Z " fill="#FCFCFC" transform="translate(0,0)"/>
<path d="M0 0 C1.45928869 0.53068154 2.89907842 1.11669565 4.3203125 1.7421875 C11.79322951 4.83587737 19.59106509 6.92164855 27.35473633 9.14819336 C29.33854252 9.71911918 31.3197019 10.29860118 33.30078125 10.87890625 C34.46778564 11.2147876 35.63479004 11.55066895 36.8371582 11.89672852 C39.88387033 12.95949132 42.28626099 14.27876712 45 16 C52.16559829 18.88507362 59.45411456 21.3399052 67 23 C67 23.66 67 24.32 67 25 C68.60875 25.185625 68.60875 25.185625 70.25 25.375 C73.54428276 25.92404713 75.14437032 26.52891805 78 28 C80.65088614 28.75373358 83.31472268 29.37343529 86 30 C86.33 31.32 86.66 32.64 87 34 C86.154375 34.37125 85.30875 34.7425 84.4375 35.125 C80.96387116 37.01970664 78.39831778 39.12453016 75.515625 41.79296875 C74 43 74 43 72 43 C72 43.66 72 44.32 72 45 C68.50227094 48.25370145 65.60139641 50.51131293 61 52 C61 52.66 61 53.32 61 54 C59.3203125 55.40234375 59.3203125 55.40234375 57.125 56.9375 C54.32503965 58.89947938 52.93937238 60.09094143 51 63 C50.01 63 49.02 63 48 63 C48 63.66 48 64.32 48 65 C47.34 65 46.68 65 46 65 C45.79375 65.5775 45.5875 66.155 45.375 66.75 C43.48374778 69.84477636 41.09964063 71.1918763 38 73 C37.34 73 36.68 73 36 73 C36 73.66 36 74.32 36 75 C34.68 75.33 33.36 75.66 32 76 C32 76.66 32 77.32 32 78 C31.38125 78.0825 30.7625 78.165 30.125 78.25 C27.85609195 78.78597843 27.85609195 78.78597843 27 80.8125 C26.67 81.534375 26.34 82.25625 26 83 C25.319375 83.5775 24.63875 84.155 23.9375 84.75 C21.11262817 88.03049632 21.28476582 90.72851263 21 95 C21.66 95 22.32 95 23 95 C24.24926758 96.44946289 24.24926758 96.44946289 25.64453125 98.47265625 C26.41313477 99.57577148 26.41313477 99.57577148 27.19726562 100.70117188 C27.73029297 101.48041016 28.26332031 102.25964844 28.8125 103.0625 C29.86053692 104.57431593 30.90871257 106.08603569 31.95703125 107.59765625 C32.46500244 108.34450684 32.97297363 109.09135742 33.49633789 109.86083984 C34.44896044 111.21607263 35.4420077 112.54446752 36.48608398 113.83056641 C39.96262863 118.16558581 40.70066458 121.68338968 40.4375 127.25 C40.41864746 128.02432373 40.39979492 128.79864746 40.38037109 129.59643555 C40.02268617 140.52118632 38.83559256 151.42688506 36.9375 162.1875 C35.68188329 169.72120026 35.56554362 177.3310846 35.34155273 184.9519043 C35.31005127 185.96164307 35.2785498 186.97138184 35.24609375 188.01171875 C35.22216553 188.92397217 35.1982373 189.83622559 35.17358398 190.77612305 C35 193 35 193 34 195 C33.85762079 196.89019414 33.77371272 198.78493558 33.71875 200.6796875 C33.66267578 202.41605469 33.66267578 202.41605469 33.60546875 204.1875 C33.57066406 205.404375 33.53585937 206.62125 33.5 207.875 C33.21566998 217.50009788 32.72276778 227.0531838 31.72607422 236.6328125 C31.48543366 239.10906609 31.32891176 241.57883144 31.1875 244.0625 C31.09146484 244.87009766 30.99542969 245.67769531 30.89648438 246.50976562 C30.77503314 249.39938833 31.03564723 251.25666686 32 254 C34.31939653 256.56801554 34.31939653 256.56801554 37.27929688 259.02636719 C38.38208535 259.99775221 39.48278129 260.97151697 40.58158875 261.94740295 C41.4334076 262.70032718 41.4334076 262.70032718 42.30243492 263.46846199 C45.02136633 265.92147357 47.61702732 268.49223861 50.20825195 271.07885742 C50.99426159 271.86174952 50.99426159 271.86174952 51.79615021 272.66045761 C53.44567412 274.30666216 55.09212073 275.95590144 56.73828125 277.60546875 C57.91490932 278.78142053 59.09168557 279.95722407 60.26860046 281.13288879 C62.71137055 283.5741995 65.15236116 286.01727117 67.59204102 288.46166992 C70.69946155 291.5748122 73.81138656 294.68340708 76.92464924 297.79070568 C79.34670274 300.20912731 81.76634708 302.62994809 84.1852932 305.05147743 C85.33148286 306.19832779 86.47839802 307.34445358 87.62609291 308.48979759 C93.07480297 313.92978165 98.44684758 319.37917157 103.45469666 325.23454285 C106.03840369 328.18634133 108.83186808 330.91634162 111.6328125 333.66015625 C112.86341389 334.8781212 114.09387862 336.09622426 115.32421875 337.31445312 C117.22902923 339.19443962 119.13543461 341.07275278 121.04443359 342.94848633 C122.91172519 344.78538238 124.77258292 346.62861253 126.6328125 348.47265625 C127.47986252 349.29951683 127.47986252 349.29951683 128.34402466 350.14308167 C132.05719528 353.83291585 135.02216396 357.69485681 138 362 C139.78280241 363.82302501 139.78280241 363.82302501 141.625 365.25 C147.08517593 369.8295024 151.99925517 374.93198058 157 380 C158.66541963 381.66791277 160.33197112 383.33469666 162 385 C163.78516824 386.78516824 165.57028741 388.57032142 167.3515625 390.359375 C168.69476826 391.69621485 170.06268552 393.00818882 171.4375 394.3125 C173 396 173 396 173 398 C173.66 398 174.32 398 175 398 C175.634823 399.06081787 175.634823 399.06081787 176.2824707 400.14306641 C178.27871574 403.46361502 180.74265026 406.01197745 183.48046875 408.7109375 C184.01215164 409.24216217 184.54383453 409.77338684 185.09162903 410.32070923 C186.21472432 411.44079448 187.34023802 412.55845946 188.46801758 413.67382812 C190.16994872 415.35763562 191.86387294 417.04917331 193.55664062 418.7421875 C198.62207715 423.79024281 203.72128605 428.7019363 209.16040039 433.34960938 C212.70769386 436.53205182 215.89586282 440.0627126 219.125 443.5625 C221.1342795 445.72678106 223.14562324 447.88860143 225.16943359 450.03930664 C226.30031556 451.25057806 227.416135 452.47636329 228.50634766 453.72436523 C232.44704518 458.05858878 236.67980994 459.93400583 242.125 461.9375 C242.99519775 462.27031982 243.86539551 462.60313965 244.76196289 462.94604492 C247.50089143 463.98430423 250.24870725 464.99501052 253 466 C254.32378662 466.49064941 254.32378662 466.49064941 255.67431641 466.99121094 C264.74819172 470.34140918 273.67212363 473.35041751 283.16015625 475.31640625 C286.90735283 476.21841368 290.35076864 477.5978049 293.87890625 479.1328125 C295.90602343 479.96157864 297.86525542 480.52561231 300 481 C300 481.66 300 482.32 300 483 C300.86882812 483.13664062 301.73765625 483.27328125 302.6328125 483.4140625 C309.94705975 484.68684334 317.06103273 486.51382061 323.9609375 489.25390625 C327.24360871 490.45503691 330.62000126 491.28674581 333.99609375 492.18359375 C337.2641711 493.07179683 340.50794839 494.02105675 343.75 495 C345.28914062 495.4640625 345.28914062 495.4640625 346.859375 495.9375 C349.65385714 496.88289694 352.30498148 498.00069653 355.00439453 499.18359375 C359.10599519 500.86156691 363.3408911 502.16060821 367.5625 503.5 C368.5419458 503.81187256 369.5213916 504.12374512 370.53051758 504.44506836 C376.78497747 506.40065045 382.99811407 507.94458046 389.43359375 509.19140625 C396.38444046 510.76733754 403.12120085 513.11165293 409.89160156 515.32177734 C413.36735627 516.43984666 416.87220217 517.4548674 420.3828125 518.45703125 C422 519 422 519 423 520 C424.41223948 520.18382456 425.83051044 520.32234273 427.25 520.4375 C430.8189108 520.79040665 433.73935345 521.4222678 437 523 C437 523.66 437 524.32 437 525 C438.98 525 440.96 525 443 525 C443 525.66 443 526.32 443 527 C447.29 527.33 451.58 527.66 456 528 C456.66 526.35 457.32 524.7 458 523 C458.33 522.34 458.66 521.68 459 521 C459.66 521 460.32 521 461 521 C461.99 518.03 462.98 515.06 464 512 C464.66 512 465.32 512 466 512 C466.12375 511.0409375 466.12375 511.0409375 466.25 510.0625 C467.29520372 505.79458483 469.14091826 501.96892333 471 498 C471.66 498 472.32 498 473 498 C473.37125 496.845 473.7425 495.69 474.125 494.5 C475.87529776 489.22398283 477.84540904 484.03623563 479.84228516 478.84960938 C482.41463301 472.09865122 484.2500502 465.19239119 486 458.1875 C486.17515137 457.48898926 486.35030273 456.79047852 486.53076172 456.07080078 C487.68599921 451.41001506 488.68185603 446.73974173 489.56640625 442.01953125 C490 440 490 440 491.0625 437.0625 C492.20608194 433.32679899 492.42983254 429.76762619 492.65625 425.87890625 C493 423 493 423 493.96484375 419.640625 C495.05385173 415.81060449 495.59371888 412.13865518 496.0625 408.1875 C496.89623865 401.2075227 496.89623865 401.2075227 498 399 C498.15051566 396.33992519 498.23127734 393.72345815 498.25 391.0625 C498.270625 390.33353516 498.29125 389.60457031 498.3125 388.85351562 C498.41663167 384.67385334 498.41663167 384.67385334 496.484375 381.12109375 C495.99453125 380.75113281 495.5046875 380.38117188 495 380 C495 379.34 495 378.68 495 378 C494.43410156 377.9278125 493.86820313 377.855625 493.28515625 377.78125 C490.16514963 376.71458107 488.67765619 374.89556466 486.4375 372.5 C483.22727319 368.97777019 483.22727319 368.97777019 479 367 C479 366.34 479 365.68 479 365 C471.80748259 362.6024942 466.31221644 364.70659301 459.33203125 366.99609375 C456.34337079 367.89654596 453.51803843 368.47831699 450.4375 368.9375 C445.22999209 369.78277665 440.82851719 371.65990835 436.01953125 373.77734375 C432.16592158 375.33773162 428.29715068 376.25834984 424.25390625 377.19140625 C420.51309151 378.12099647 416.85611027 379.26179901 413.1875 380.4375 C407.77475164 382.15654517 402.35166121 383.80804303 396.875 385.3125 C395.69679688 385.63863281 394.51859375 385.96476562 393.3046875 386.30078125 C390.09304503 386.98031317 387.27063876 387.13420554 384 387 C384 387.66 384 388.32 384 389 C380.58394396 389.93973458 377.16715728 390.87677786 373.75 391.8125 C372.73599121 392.0902124 371.72198242 392.3679248 370.67724609 392.65405273 C365.67307856 394.01886218 360.6696945 395.35402165 355.625 396.5625 C350.11076188 397.89879712 344.72926616 399.60799997 339.34033203 401.37524414 C336.43542278 402.31413559 334.07488312 403 331 403 C331 401.02 331 399.04 331 397 C331.66 397 332.32 397 333 397 C333.061875 396.319375 333.12375 395.63875 333.1875 394.9375 C334.26401385 391.04548838 336.25665032 387.96555246 339 385 C339.66 385 340.32 385 341 385 C341 384.34 341 383.68 341 383 C341.66 383 342.32 383 343 383 C343 382.34 343 381.68 343 381 C343.99 381 344.98 381 346 381 C346 380.34 346 379.68 346 379 C347.4540625 378.566875 347.4540625 378.566875 348.9375 378.125 C352.10664203 377.35785318 352.10664203 377.35785318 353 375 C354.9493686 374.2133623 356.93601522 373.51756943 358.9375 372.875 C360.55978516 372.34519531 360.55978516 372.34519531 362.21484375 371.8046875 C365 371 365 371 367 371 C367 370.34 367 369.68 367 369 C368.98 368.67 370.96 368.34 373 368 C373 367.34 373 366.68 373 366 C374.725227 365.32320342 376.45538939 364.65898 378.1875 364 C379.15042969 363.62875 380.11335938 363.2575 381.10546875 362.875 C383.92182358 362.02363228 386.08164439 361.82927353 389 362 C389 361.34 389 360.68 389 360 C397.03751943 356.98975033 405.10697539 354.3591735 413.375 352.0625 C418.6325293 350.52150003 423.80918641 348.75070747 429 347 C430.49975069 346.49925268 431.99972745 345.9991816 433.5 345.5 C434.21027344 345.26152344 434.92054688 345.02304687 435.65234375 344.77734375 C437.41139293 344.19489652 439.17526312 343.62697492 440.94140625 343.06640625 C446.11322193 341.40288106 450.88956792 339.64112998 455.6640625 337.0625 C460.09113388 335.0488488 464.85067659 333.80782004 469.51171875 332.44140625 C474.01138626 330.58208115 476.87181058 328.24817383 479.07421875 323.859375 C479.27660156 323.16328125 479.47898437 322.4671875 479.6875 321.75 C479.91695312 320.97785156 480.14640625 320.20570313 480.3828125 319.41015625 C481.17775675 316.30584864 481.87069819 313.19034946 482.47265625 310.04296875 C483 308 483 308 484.0234375 306.03125 C485.13738943 303.71422998 485.36412713 301.86602315 485.5625 299.3125 C485.90035587 295.09964413 485.90035587 295.09964413 487 294 C487.36760731 291.67182036 487.70241581 289.3381615 488 287 C488.66 287 489.32 287 490 287 C490 281.72 490 276.44 490 271 C489.34 271 488.68 271 488 271 C484 264.375 484 264.375 484 261 C483.34 261 482.68 261 482 261 C478 254.5 478 254.5 478 250 C477.34 250 476.68 250 476 250 C476 249.34 476 248.68 476 248 C475.34 248 474.68 248 474 248 C472.98758753 246.11076602 471.99052575 244.21330056 471 242.3125 C470.1646875 240.72888672 470.1646875 240.72888672 469.3125 239.11328125 C468.0327726 236.07773738 467.71148957 234.23973174 468 231 C479.66536579 232.12890637 490.7315901 234.87728276 502 238 C503.00417969 238.27070313 504.00835938 238.54140625 505.04296875 238.8203125 C505.91566406 239.06523437 506.78835938 239.31015625 507.6875 239.5625 C508.43386719 239.77003906 509.18023438 239.97757813 509.94921875 240.19140625 C512.5274882 241.20798106 514.08854449 241.95261877 516 244 C516.38706102 246.68504531 516.5219782 248.88787087 516.4375 251.5625 C516.4257373 252.28268311 516.41397461 253.00286621 516.40185547 253.74487305 C516.24341223 258.68486741 515.45869088 262.99283231 513.78125 267.66015625 C512.93631948 270.19072314 512.52293803 272.61366052 512.125 275.25 C511.17101113 280.97393323 509.19272112 286.14529507 507.16796875 291.56640625 C505.81148646 295.55419197 505.04580653 299.4504434 504.39453125 303.6015625 C503.70118465 307.81656066 502.48983752 311.8026194 500.875 315.75 C498.93405901 322.83219235 498.93405901 322.83219235 500 330 C503.61360895 335.05547976 508.18784731 339.34142165 512.71484375 343.57055664 C514 345 514 345 514 347 C514.99 347 515.98 347 517 347 C517.12761719 346.28376465 517.25523437 345.5675293 517.38671875 344.82958984 C517.99712097 342.01328343 518.83123158 339.43433556 519.8125 336.7265625 C520.16570313 335.7365625 520.51890625 334.7465625 520.8828125 333.7265625 C521.62511382 331.66576794 522.36988982 329.60586302 523.1171875 327.546875 C524.97099072 322.33728202 526.50272675 317.51662516 527 312 C527.66 312 528.32 312 529 312 C528.9175 311.05125 528.835 310.1025 528.75 309.125 C528.74919385 305.87501897 529.45440041 303.58659411 530.7578125 300.62109375 C533.41324729 294.20850122 535.2559932 287.61404712 537.125 280.9375 C537.47175781 279.72255859 537.81851563 278.50761719 538.17578125 277.25585938 C539.63169576 272.10995465 541.04215566 266.99390061 542.1171875 261.75390625 C543 258 543 258 545 256 C545.47465236 254.37262049 545.94535542 252.74396975 546.39453125 251.109375 C549.68899128 239.63190134 555.65412098 231.47670322 565 224 C565 415.4 565 606.8 565 804 C418.15 804 271.3 804 120 804 C121.98 801.525 121.98 801.525 124 799 C124.66 799 125.32 799 126 799 C126.33 798.01 126.66 797.02 127 796 C128.77734375 794.17578125 128.77734375 794.17578125 130.9375 792.3125 C131.64777344 791.68988281 132.35804688 791.06726563 133.08984375 790.42578125 C135 789 135 789 137 789 C137 788.34 137 787.68 137 787 C137.66 787 138.32 787 139 787 C139 786.34 139 785.68 139 785 C139.66 785 140.32 785 141 785 C141 784.34 141 783.68 141 783 C141.66 783 142.32 783 143 783 C143 782.34 143 781.68 143 781 C143.66 781 144.32 781 145 781 C145 780.34 145 779.68 145 779 C145.66 779 146.32 779 147 779 C147 778.34 147 777.68 147 777 C147.66 777 148.32 777 149 777 C149.21914063 776.47277344 149.43828125 775.94554687 149.6640625 775.40234375 C151.49446944 772.1108225 153.91696783 769.39247124 156.375 766.5625 C157.34177084 765.43933976 158.30792634 764.31564954 159.2734375 763.19140625 C159.73717773 762.65402832 160.20091797 762.11665039 160.67871094 761.56298828 C161.89682598 760.12204732 163.06435545 758.6387454 164.2265625 757.15234375 C166 755 166 755 168 754 C168.33 753.34 168.66 752.68 169 752 C170 750 170 750 172 749 C172.8888039 747.15402266 173.77726387 745.307879 174.6640625 743.4609375 C177.70772356 737.85419344 181.58378353 732.36780412 186.14453125 727.8984375 C188.6999223 725.28386897 189.68646193 722.37766932 191 719 C191.33 718.34 191.66 717.68 192 717 C192.66 717 193.32 717 194 717 C194.3403125 715.453125 194.3403125 715.453125 194.6875 713.875 C195.84979746 709.74054189 198.21942299 707.25530967 201 704 C202.18063851 701.70379754 203.08055406 699.41959458 204 697 C204.66 697 205.32 697 206 697 C206.04125 696.195625 206.0825 695.39125 206.125 694.5625 C206.96967519 691.12346528 207.82099718 689.57422188 209.8125 686.75 C212.48841722 682.9353946 214.18037621 679.3115063 215.79296875 674.9609375 C217.68346971 670.32339792 219.99084542 665.90107259 222.27099609 661.44506836 C223.69515331 658.65289008 225.00705805 655.97882584 226 653 C226.66 653 227.32 653 228 653 C228.1335791 652.43772705 228.2671582 651.8754541 228.40478516 651.29614258 C229.51133301 647.02744589 230.98191021 642.86964766 232.375 638.6875 C232.67921875 637.76259766 232.9834375 636.83769531 233.296875 635.88476562 C234.98664485 630.80462421 236.83984184 625.89721316 239 621 C239.37308631 619.67723944 239.73046415 618.34767923 240 617 C240.66 617 241.32 617 242 617 C241.9071875 615.5459375 241.9071875 615.5459375 241.8125 614.0625 C241.79636693 610.07763195 242.93751808 606.83839274 244.265625 603.1171875 C245.21093471 600.39187972 245.70687946 597.87258126 246 595 C246.11085938 594.26136719 246.22171875 593.52273438 246.3359375 592.76171875 C246.83738362 587.20258328 245.91200547 584.21935346 242.4375 579.8125 C239.3583905 576.33294393 236.1058582 573.05160623 232.765625 569.82421875 C230.76671758 567.7589759 229.02071255 565.57627682 227.25 563.3125 C223.27268522 558.23852755 218.97782669 553.53470462 214.59765625 548.8125 C211.92483615 545.91861959 209.32622347 542.9722146 206.74609375 539.99609375 C204.66797979 537.62044222 202.55381024 535.27917439 200.4375 532.9375 C190.51998772 521.92179641 190.51998772 521.92179641 188.625 518.5625 C186.5618981 515.30914701 183.95785663 512.9375774 181.19921875 510.265625 C178.080517 507.05275286 175.38534989 503.55458999 172.6640625 500.00390625 C171.1502063 497.90743588 171.1502063 497.90743588 169 497 C168.42378906 495.95070313 167.84757813 494.90140625 167.25390625 493.8203125 C165.05126415 489.82311391 162.24996059 486.97204904 158.9375 483.875 C155.35288512 480.4955945 152.4923655 477.27473965 150 473 C149.01 472.34 148.02 471.68 147 471 C145.99254 469.3378321 144.99359336 467.67049394 144 466 C141.6866263 463.33502546 139.28016196 460.77809893 136.86328125 458.20703125 C135 456 135 456 135 454 C134.34 454 133.68 454 133 454 C133 453.34 133 452.68 133 452 C132.34 452 131.68 452 131 452 C130.5875 451.29875 130.175 450.5975 129.75 449.875 C127.95055542 446.91876962 126.02805919 444.94238759 123.5 442.625 C122 441 122 441 120.57421875 438.60546875 C118.37596758 434.96717214 115.53406779 432.08607268 112.64453125 428.98828125 C111 427 111 427 111 425 C110.34 425 109.68 425 109 425 C107.42468498 423.09447472 105.95554982 421.18164777 104.5 419.1875 C101.18664002 414.75358679 97.78280419 410.55214942 94 406.5 C89.82010888 402.01024313 86.05590306 397.32950985 82.3984375 392.4140625 C80.61654565 390.03226706 78.86334741 387.8691773 76.7109375 385.80859375 C75 384 75 384 75 381 C74.34 381 73.68 381 73 381 C71.50122497 379.34516392 70.07511527 377.62409488 68.6875 375.875 C67.88828125 374.87339844 67.0890625 373.87179687 66.265625 372.83984375 C65.14414062 371.43412109 65.14414062 371.43412109 64 370 C62.9835717 368.80872738 61.96388629 367.62020374 60.9375 366.4375 C59 364 59 364 59 362 C58.10474609 361.62681641 58.10474609 361.62681641 57.19140625 361.24609375 C54.67784475 359.81681368 53.58409188 358.42041957 51.9375 356.0625 C50.4798924 353.99401175 49.13682736 352.13238285 47.31640625 350.37109375 C46 349 46 349 46 347 C45.34 347 44.68 347 44 347 C43 345.33333333 42 343.66666667 41 342 C38.91416987 339.42882435 36.70509291 336.96911734 34.5 334.5 C30.91684486 330.48781964 27.66968177 326.69636092 25 322 C24.03141198 320.78674261 23.03273822 319.59664107 22 318.4375 C16 311.57182836 16 311.57182836 16 309 C15.3915625 308.73703125 14.783125 308.4740625 14.15625 308.203125 C11.83236299 306.90646341 10.97692463 305.92751709 9.5 303.75 C6.62496498 299.73511524 3.49000556 296.03161819 0.25 292.3125 C-18.26364453 270.96596112 -18.26364453 270.96596112 -18.23046875 264.421875 C-18.22942139 263.5158252 -18.22837402 262.60977539 -18.22729492 261.67626953 C-18.2141626 260.71060059 -18.20103027 259.74493164 -18.1875 258.75 C-18.17887939 257.75726074 -18.17025879 256.76452148 -18.16137695 255.74169922 C-18.02517778 244.4527077 -17.42382952 233.61054124 -15.15698242 222.51513672 C-13.85004757 215.82926648 -13.30704816 209.12733772 -12.76977539 202.34277344 C-12.14303077 194.4625985 -11.35623426 186.60845754 -10.5 178.75 C-10.37197998 177.5650293 -10.24395996 176.38005859 -10.11206055 175.15917969 C-9.54297215 169.91176961 -8.96386612 164.6657734 -8.36328125 159.421875 C-5.77934468 144.65300624 -5.77934468 144.65300624 -8.875 130.8125 C-10.86719202 128.9663289 -10.86719202 128.9663289 -13 128 C-14.88141079 125.09949171 -16.50094109 122.11343005 -18 119 C-18.66 119 -19.32 119 -20 119 C-20.0825 118.21625 -20.165 117.4325 -20.25 116.625 C-20.4975 115.75875 -20.745 114.8925 -21 114 C-21.99 113.505 -21.99 113.505 -23 113 C-23.99 112.505 -23.99 112.505 -25 112 C-25.75 109.375 -25.75 109.375 -26 107 C-26.66 107 -27.32 107 -28 107 C-29.44963959 105.09625645 -30.81184323 103.12532841 -32.125 101.125 C-33.21167969 99.48917969 -33.21167969 99.48917969 -34.3203125 97.8203125 C-36 95 -36 95 -36 93 C-36.66 93 -37.32 93 -38 93 C-38.33 91.35 -38.66 89.7 -39 88 C-39.66 88 -40.32 88 -41 88 C-43.04169485 85.09451118 -44 83.59857954 -44 80 C-44.66 80 -45.32 80 -46 80 C-46.495 77.525 -46.495 77.525 -47 75 C-47.66 75 -48.32 75 -49 75 C-49 74.01 -49 73.02 -49 72 C-49.66 72 -50.32 72 -51 72 C-51.26554687 71.32453125 -51.53109375 70.6490625 -51.8046875 69.953125 C-52.15789062 69.06109375 -52.51109375 68.1690625 -52.875 67.25 C-53.22304688 66.36828125 -53.57109375 65.4865625 -53.9296875 64.578125 C-54.93705524 62.0495706 -54.93705524 62.0495706 -56.0859375 59.90234375 C-57.72913513 56.48252646 -58.14119072 53.56858534 -57 50 C-54.00820005 46.57912068 -50.51416948 43.86453407 -47 41 C-45.08263316 39.10699173 -43.22358303 37.17451951 -41.375 35.21484375 C-40 34 -40 34 -38 34 C-37.731875 33.236875 -37.46375 32.47375 -37.1875 31.6875 C-36.04865495 29.11011382 -35.18583329 27.73045136 -33 26 C-32.34 26 -31.68 26 -31 26 C-30.78472656 25.45601562 -30.56945312 24.91203125 -30.34765625 24.3515625 C-28.53620359 21.19070887 -26.04503977 18.87236204 -23.4375 16.375 C-19.77285984 13.03597098 -19.77285984 13.03597098 -17 9 C-16.34 9 -15.68 9 -15 9 C-15 8.34 -15 7.68 -15 7 C-14.34 7 -13.68 7 -13 7 C-12.731875 6.401875 -12.46375 5.80375 -12.1875 5.1875 C-9.23419973 -0.25278997 -6.07613865 -0.95181056 0 0 Z " fill="#010101" transform="translate(491,188)"/>
<path d="M0 0 C0.99 0 1.98 0 3 0 C2.63620904 3.12860224 2.3164019 5.49663334 0.625 8.1875 C-1.44670854 11.7731494 -2.22083609 15.36442155 -3.15625 19.37890625 C-4.04776184 22.14837128 -5.24438297 23.7114278 -7 26 C-7.7265275 27.76823971 -8.39090797 29.56295122 -9 31.375 C-10.00586397 34.35068091 -11.05173544 37.10250772 -12.46875 39.91015625 C-14.66629119 44.34448043 -16.13306571 48.9793382 -17.71875 53.66015625 C-19 57 -19 57 -20.53125 59.5390625 C-22.23597956 62.39539129 -23.0820634 65.11884557 -24 68.3125 C-25.47553636 73.30662305 -27.0993612 78.15337107 -29 83 C-29.66 83 -30.32 83 -31 83 C-31.19142578 84.30324219 -31.19142578 84.30324219 -31.38671875 85.6328125 C-31.97167094 88.84446084 -32.78241698 91.78064701 -33.8125 94.875 C-34.12832031 95.84179688 -34.44414062 96.80859375 -34.76953125 97.8046875 C-35.71861379 100.26928915 -36.72508841 102.46716568 -37.9375 104.796875 C-40.18015433 109.17979366 -41.70189453 113.69051937 -43.1875 118.375 C-43.7006115 119.9665369 -44.21487856 121.55770186 -44.73046875 123.1484375 C-44.95114014 123.84114746 -45.17181152 124.53385742 -45.39916992 125.24755859 C-46 127 -46 127 -47 129 C-47.66 129 -48.32 129 -49 129 C-49.10957031 129.64066406 -49.21914062 130.28132812 -49.33203125 130.94140625 C-50.32460328 136.3561691 -51.62458653 141.03322639 -54 146 C-54.66 146 -55.32 146 -56 146 C-56.13277344 146.89203125 -56.26554688 147.7840625 -56.40234375 148.703125 C-56.57894531 149.87359375 -56.75554687 151.0440625 -56.9375 152.25 C-57.11152344 153.41015625 -57.28554687 154.5703125 -57.46484375 155.765625 C-58 159 -58 159 -58.52075195 160.84594727 C-61.73997463 175.31522985 -59.41106104 192.69088801 -56 207 C-55.75926758 208.0533252 -55.75926758 208.0533252 -55.51367188 209.12792969 C-53.42110336 218.36210126 -53.42110336 218.36210126 -50.375 227.3125 C-49.2257403 230.39460557 -48.66553972 232.79571397 -48.1875 236 C-47.25367467 241.73065457 -45.28631816 246.83109982 -43.18579102 252.20996094 C-40.77419459 258.43449696 -39 264.24060416 -39 271 C-38.34 271 -37.68 271 -37 271 C-35.86235649 275.26616316 -35 278.56486311 -35 283 C-34.34 283 -33.68 283 -33 283 C-32.5625 284.45833333 -32.125 285.91666667 -31.6875 287.375 C-31.41035156 288.2928125 -31.13320312 289.210625 -30.84765625 290.15625 C-30.32100568 291.92307773 -29.80580084 293.69341167 -29.30859375 295.46875 C-27.1767453 302.97285653 -24.15948743 310.04379935 -21.046875 317.1875 C-18.91097932 322.38065811 -18.3319933 327.41335411 -18 333 C-17.34 333 -16.68 333 -16 333 C-15.68546875 333.83402344 -15.3709375 334.66804688 -15.046875 335.52734375 C-12.83681124 341.33874634 -10.56172544 347.07283216 -7.9765625 352.7265625 C-6.41704675 356.35711518 -5.1322949 360.08266005 -3.83203125 363.8125 C-3.1920234 365.94448669 -3.1920234 365.94448669 -2 367 C-1.95936168 368.66617115 -1.957279 370.33388095 -2 372 C-1.34 372 -0.68 372 0 372 C0.350625 373.19625 0.70125 374.3925 1.0625 375.625 C2.49677447 379.98988337 4.45039464 383.99498333 6.5625 388.0625 C9.11059296 392.97940986 11.01587186 397.53262146 12 403 C12.66 403 13.32 403 14 403 C15.12733353 404.64489562 16.17653603 406.34362992 17.1875 408.0625 C19.85601851 412.38295855 22.54621697 415.86075668 26.2421875 419.31640625 C28.79945753 421.76570266 31.05067349 424.45603278 33.35546875 427.140625 C34.82325682 428.80016685 36.33851979 430.34358233 37.9375 431.875 C40 434 40 434 40 436 C40.82177734 436.09667969 40.82177734 436.09667969 41.66015625 436.1953125 C45.00226152 437.34468426 46.8959168 439.44269431 49.4375 441.875 C53.23872748 445.51472709 53.23872748 445.51472709 57.53515625 448.5078125 C61.47884424 450.89527496 64.33868065 454.30561468 67.5 457.625 C69.82370675 460.02123566 69.82370675 460.02123566 72.31790161 461.32527161 C75.45827823 463.2861534 77.79721456 465.55027305 80.41357422 468.1706543 C80.92975311 468.68493484 81.44593201 469.19921539 81.97775269 469.7290802 C83.67498251 471.42262012 85.36492558 473.12323009 87.0546875 474.82421875 C88.24109972 476.01182463 89.42788355 477.19905937 90.61502075 478.38594055 C93.10111438 480.87359635 95.58382036 483.36456754 98.06396484 485.8581543 C101.22485487 489.03596861 104.39222136 492.2072267 107.56196404 495.37620831 C110.01425108 497.828769 112.46390975 500.28394102 114.91272354 502.73996925 C116.07859723 503.90900052 117.24505586 505.07744875 118.41213608 506.2452755 C134.38666056 522.24120186 134.38666056 522.24120186 139 530 C140.61974559 531.71230248 142.2958946 533.37163262 144 535 C149.55293437 540.3191266 154.43441424 545.81242983 159 552 C159.6496875 552.87914062 160.299375 553.75828125 160.96875 554.6640625 C162.99546014 557.43130134 165.00004938 560.21337604 167 563 C167.66902344 563.9178125 168.33804687 564.835625 169.02734375 565.78125 C169.65769531 566.6578125 170.28804688 567.534375 170.9375 568.4375 C171.50339844 569.21996094 172.06929688 570.00242187 172.65234375 570.80859375 C173.95030618 572.91919352 174.5641765 574.57814537 175 577 C175.66 577 176.32 577 177 577 C178.47265625 579.046875 178.47265625 579.046875 180.0625 581.75 C180.58972656 582.63171875 181.11695313 583.5134375 181.66015625 584.421875 C183 587 183 587 183.49609375 589.265625 C183.66238281 589.83796875 183.82867187 590.4103125 184 591 C184.99 591.33 185.98 591.66 187 592 C187.94921875 594.06640625 187.94921875 594.06640625 188.6875 596.5625 C188.93886719 597.38878906 189.19023437 598.21507812 189.44921875 599.06640625 C189.72185547 600.02353516 189.72185547 600.02353516 190 601 C190.66 601 191.32 601 192 601 C192.67154933 602.28913487 193.33708859 603.58140204 194 604.875 C194.37125 605.59429688 194.7425 606.31359375 195.125 607.0546875 C196 609 196 609 196 611 C196.66 611 197.32 611 198 611 C198.84069415 612.60032137 199.67231505 614.20541171 200.5 615.8125 C200.9640625 616.70582031 201.428125 617.59914063 201.90625 618.51953125 C203 621 203 621 203 624 C204.32 624.66 205.64 625.32 207 626 C207 626.66 207 627.32 207 628 C49.59 628 -107.82 628 -270 628 C-270 486.43 -270 344.86 -270 199 C-266.29632403 201.96294078 -264.02284885 203.96609134 -261.25 207.5625 C-260.56164062 208.44164062 -259.87328125 209.32078125 -259.1640625 210.2265625 C-258.44992187 211.14179687 -257.73578125 212.05703125 -257 213 C-251.64908431 219.70313265 -246.10540675 226.15913913 -240.30859375 232.48046875 C-232 241.54822335 -232 241.54822335 -232 244 C-231.34 244 -230.68 244 -230 244 C-229.58364792 244.70009186 -229.16729584 245.40018372 -228.73832703 246.12149048 C-226.65059646 249.5785801 -224.03610643 252.23608348 -221.18676758 255.05615234 C-220.31293427 255.93283318 -220.31293427 255.93283318 -219.42144775 256.82722473 C-217.50065537 258.75171122 -215.57277294 260.66891719 -213.64453125 262.5859375 C-212.29998379 263.92929163 -210.95580713 265.27301698 -209.61198425 266.61709595 C-206.79478074 269.43273661 -203.97425506 272.24499137 -201.15112305 275.0546875 C-197.54956692 278.63931158 -193.95457015 282.23042468 -190.36185169 285.82390404 C-187.5850296 288.60045278 -184.80559745 291.37437637 -182.02530479 294.14744949 C-180.69997034 295.46962186 -179.37522299 296.79238303 -178.05109596 298.11576462 C-168.30245939 307.85473511 -168.30245939 307.85473511 -158 317 C-153.88285273 320.57223072 -149.85516746 324.14483254 -146 328 C-143.87935996 329.81651724 -141.75191011 331.62340359 -139.609375 333.4140625 C-139.07828125 333.93742187 -138.5471875 334.46078125 -138 335 C-138 335.66 -138 336.32 -138 337 C-137.13375 337.14115234 -137.13375 337.14115234 -136.25 337.28515625 C-133.49409598 338.16072992 -132.0998609 339.46477912 -130 341.4375 C-127.99540206 343.31289534 -126.34766553 344.83064087 -123.875 346.03515625 C-122 347 -122 347 -120 350 C-118.31506323 351.17028702 -118.31506323 351.17028702 -116.4375 352.125 C-113 354 -113 354 -112 355 C-112 350.38 -112 345.76 -112 341 C-112.66 341 -113.32 341 -114 341 C-114.48392436 336.16712984 -114.96269351 331.33377296 -115.4375 326.5 C-115.50725037 325.79081421 -115.57700073 325.08162842 -115.64886475 324.35095215 C-116.55051979 315.1425937 -117.36145974 305.94748944 -117.7890625 296.703125 C-117.89810293 293.90325206 -117.89810293 293.90325206 -119 291 C-124.45948756 259.6794058 -123.09471347 227.17942329 -123.18033218 195.50317383 C-123.18746743 193.26023722 -123.19777908 191.01733449 -123.20883179 188.77441406 C-123.225611 185.19660124 -123.23146478 181.61891901 -123.22938538 178.04106903 C-123.230438 176.07312112 -123.24111187 174.10518572 -123.2520752 172.13726807 C-123.23519413 165.41804202 -122.75072955 159.49111553 -121 153 C-120.63068359 151.39125 -120.63068359 151.39125 -120.25390625 149.75 C-120.02574219 148.8425 -119.79757813 147.935 -119.5625 147 C-119.22412109 145.6078125 -119.22412109 145.6078125 -118.87890625 144.1875 C-118.58886719 143.465625 -118.29882812 142.74375 -118 142 C-117.01 141.67 -116.02 141.34 -115 141 C-114.62875 139.7934375 -114.62875 139.7934375 -114.25 138.5625 C-111.32917851 130.23815875 -104.6959612 123.21992818 -99.4140625 116.25 C-97.6544061 113.90573531 -95.95292911 111.5273258 -94.2734375 109.125 C-93.82137939 108.48014648 -93.36932129 107.83529297 -92.90356445 107.17089844 C-92.02138423 105.90729131 -91.1447451 104.63979443 -90.27416992 103.36816406 C-89.2315304 101.87681228 -88.12142531 100.43305011 -87 99 C-86.34 99 -85.68 99 -85 99 C-84.7421875 98.27425781 -84.484375 97.54851562 -84.21875 96.80078125 C-82.94757501 93.87952333 -81.45983598 91.69127351 -79.5 89.1875 C-78.8915625 88.39730469 -78.283125 87.60710937 -77.65625 86.79296875 C-77.1096875 86.20128906 -76.563125 85.60960937 -76 85 C-75.34 85 -74.68 85 -74 85 C-74 84.34 -74 83.68 -74 83 C-73.01 82.34 -72.02 81.68 -71 81 C-70.30777344 79.61554688 -70.30777344 79.61554688 -69.6015625 78.203125 C-67.90108023 74.80216047 -65.9736106 72.50943667 -63.375 69.75 C-60.33006993 66.62404633 -60.33006993 66.62404633 -58 63 C-57.34 63 -56.68 63 -56 63 C-55.75636719 62.43796875 -55.51273438 61.8759375 -55.26171875 61.296875 C-53.75819064 58.55980215 -51.93300252 56.54204059 -49.8125 54.25 C-48.61173828 52.93902344 -48.61173828 52.93902344 -47.38671875 51.6015625 C-46.59910156 50.74304688 -45.81148437 49.88453125 -45 49 C-43.7028227 47.54656616 -42.41055508 46.08872369 -41.125 44.625 C-40.59132812 44.01914062 -40.05765625 43.41328125 -39.5078125 42.7890625 C-37.93210444 40.97144235 -37.93210444 40.97144235 -36.4296875 38.7734375 C-35.95789063 38.18820312 -35.48609375 37.60296875 -35 37 C-34.34 37 -33.68 37 -33 37 C-32.75378906 36.42507813 -32.50757813 35.85015625 -32.25390625 35.2578125 C-30.80206947 32.64360173 -29.09712451 30.93663792 -26.9375 28.875 C-24.08428067 26.22095 -24.08428067 26.22095 -22 23 C-21.34 23 -20.68 23 -20 23 C-19.73646729 22.40977051 -19.47293457 21.81954102 -19.20141602 21.21142578 C-17.95023299 18.90839473 -16.65195022 17.43638558 -14.77734375 15.6171875 C-14.15666016 15.00746094 -13.53597656 14.39773438 -12.89648438 13.76953125 C-12.25001953 13.14433594 -11.60355469 12.51914062 -10.9375 11.875 C-9.6527607 10.62463926 -8.37010319 9.37213484 -7.08984375 8.1171875 C-6.23700806 7.29130127 -6.23700806 7.29130127 -5.36694336 6.44873047 C-3.89270095 5.02585988 -3.89270095 5.02585988 -3 3 C-2.34 3 -1.68 3 -1 3 C-0.67 2.01 -0.34 1.02 0 0 Z " fill="#010101" transform="translate(270,364)"/>
<path d="M0 0 C103.5478125 -0.1546875 103.5478125 -0.1546875 209.1875 -0.3125 C231.01672607 -0.35802002 252.84595215 -0.40354004 275.33666992 -0.45043945 C301.9107666 -0.47302246 301.9107666 -0.47302246 314.33540344 -0.47721863 C323.04775185 -0.48189316 331.75994108 -0.50028376 340.47224426 -0.52787781 C350.51179922 -0.55962878 360.5512008 -0.57419757 370.59080638 -0.56722475 C375.73027306 -0.56420305 380.86939661 -0.56910624 386.00880086 -0.59607565 C390.65167287 -0.62029227 395.29395709 -0.62169328 399.93685532 -0.60450554 C401.61956264 -0.60237634 403.30230589 -0.60879494 404.98494208 -0.62441289 C407.27104475 -0.64439337 409.55501469 -0.63372336 411.84108257 -0.61523914 C413.11200652 -0.61713775 414.38293046 -0.61903635 415.69236726 -0.62099248 C419.87880929 0.16499231 421.28413536 1.8068627 424 5 C425.3737351 6.11122171 426.76919874 7.19625272 428.1875 8.25 C431.6567903 10.89381856 434.90901786 13.67824011 438.125 16.625 C440.92546382 19.18666458 443.68806615 21.59475062 446.8125 23.75 C449.92214449 25.94504317 452.38411864 28.24644067 455 31 C457.50353591 33.62871271 459.61987586 35.77538119 462.75 37.625 C465 39 465 39 466 42 C467.32303717 42.3721042 468.65737935 42.70630173 470 43 C470.33 43.66 470.66 44.32 471 45 C471.763125 45.433125 472.52625 45.86625 473.3125 46.3125 C476.29861598 48.18750305 477.81164884 50.26456104 480 53 C481.66279327 54.0064275 483.32983484 55.00585407 485 56 C486.51923826 57.45091273 487.95560564 58.95156979 489.375 60.5 C490.98469093 62.10369166 490.98469093 62.10369166 493.1875 63.21875 C498.06771029 66.30954985 501.98132067 70.54463718 506.1171875 74.55078125 C509.59439792 77.87709386 512.80791327 80.59835855 517 83 C518.52204854 84.41351986 520.00106789 85.87455576 521.4375 87.375 C526.30466986 92.34710056 530.99811967 96.4313144 537 100 C538.8125 101.5625 538.8125 101.5625 540 103 C540 103.66 540 104.32 540 105 C535.4047689 104.45294868 532.07063331 103.16523048 528 101 C527.0925 100.649375 526.185 100.29875 525.25 99.9375 C523 99 523 99 521 97 C519.01178687 96.60235737 517.01055661 96.26224651 515 96 C515 95.34 515 94.68 515 94 C513.845 93.896875 512.69 93.79375 511.5 93.6875 C507.66092225 93.21865688 504.40339475 92.14326119 500.83203125 90.69921875 C498.59367861 89.84492211 496.36371478 89.36933043 494 89 C494 88.34 494 87.68 494 87 C493.49855469 86.8865625 492.99710937 86.773125 492.48046875 86.65625 C489.04400746 85.74707599 485.68359037 84.62262762 482.3125 83.5 C481.62349609 83.27441406 480.93449219 83.04882812 480.22460938 82.81640625 C475.11983385 81.11983385 475.11983385 81.11983385 474 80 C471.67182036 79.63239269 469.3381615 79.29758419 467 79 C467 78.01 467 77.02 467 76 C465.68 76 464.36 76 463 76 C463 75.34 463 74.68 463 74 C460.03 73.67 457.06 73.34 454 73 C454 72.34 454 71.68 454 71 C453.21496094 70.89042969 452.42992187 70.78085938 451.62109375 70.66796875 C445.56959131 69.75467452 440.52421388 68.59299835 435 66 C432.22111387 65.30859478 432.22111387 65.30859478 430 65 C430 64.34 430 63.68 430 63 C429.0925 62.87625 428.185 62.7525 427.25 62.625 C424 62 424 62 422.125 61 C418.85475651 59.46106189 415.58535082 59.35853508 412 59 C412 58.34 412 57.68 412 57 C410.741875 56.72027344 409.48375 56.44054688 408.1875 56.15234375 C407.36378906 55.96913574 406.54007812 55.78592773 405.69140625 55.59716797 C403.90788873 55.20144193 402.12403733 54.80721747 400.33984375 54.41455078 C397.55884882 53.80183157 394.77938296 53.18248667 392 52.5625 C390.60007812 52.25602539 390.60007812 52.25602539 389.171875 51.94335938 C383.99708667 50.78336842 378.98461333 49.43719252 373.97875977 47.68212891 C371.01905701 46.66184396 368.01674662 45.83441928 365 45 C365 44.34 365 43.68 365 43 C360.71 43.33 356.42 43.66 352 44 C352 44.66 352 45.32 352 46 C349.03 46.66 346.06 47.32 343 48 C343 48.66 343 49.32 343 50 C341.2097939 50.67057887 339.41778511 51.3363469 337.625 52 C336.62726563 52.37125 335.62953125 52.7425 334.6015625 53.125 C332 54 332 54 330 54 C330 54.66 330 55.32 330 56 C327.73117913 56.83919398 325.46022973 57.67151724 323.1875 58.5 C322.54490234 58.73847656 321.90230469 58.97695313 321.24023438 59.22265625 C318.35066261 60.27068746 316.09923939 61 313 61 C313 61.66 313 62.32 313 63 C309.00362199 64.67545745 305.00227213 66.33867949 301 68 C300.071875 68.391875 299.14375 68.78375 298.1875 69.1875 C293.79063455 71.01059055 289.78024817 72.49681598 285 73 C285 73.66 285 74.32 285 75 C284.13117188 75.32613281 283.26234375 75.65226562 282.3671875 75.98828125 C281.21476562 76.42527344 280.06234375 76.86226563 278.875 77.3125 C277.73804688 77.74175781 276.60109375 78.17101562 275.4296875 78.61328125 C271.98489852 79.94572502 271.98489852 79.94572502 268.7578125 81.66796875 C266 83 266 83 263 83 C263 83.66 263 84.32 263 85 C261.96939453 85.39832031 261.96939453 85.39832031 260.91796875 85.8046875 C260.01691406 86.15789062 259.11585938 86.51109375 258.1875 86.875 C257.29417969 87.22304687 256.40085937 87.57109375 255.48046875 87.9296875 C252.82288409 88.98832155 252.82288409 88.98832155 250 91 C249.01 91 248.02 91 247 91 C247 91.66 247 92.32 247 93 C245.41800369 93.64910154 243.83434276 94.29414694 242.25 94.9375 C240.92742187 95.47697266 240.92742187 95.47697266 239.578125 96.02734375 C237.38813896 96.85356576 235.28101729 97.49369943 233 98 C233 98.66 233 99.32 233 100 C232.43152344 100.31453125 231.86304688 100.6290625 231.27734375 100.953125 C230.50519531 101.38109375 229.73304688 101.8090625 228.9375 102.25 C227.70386719 102.930625 227.70386719 102.930625 226.4453125 103.625 C224.96824397 104.45555611 223.50106072 105.30457338 222.0546875 106.1875 C218.36539522 108.43747197 215.30585757 109.57991633 211 110 C211 110.66 211 111.32 211 112 C206.41845739 114.39542583 201.9723422 116.50829734 197 118 C197 118.66 197 119.32 197 120 C192.76201664 123.45277325 188.50102837 125.58742287 183 126 C183 126.66 183 127.32 183 128 C181.3203125 129.2890625 181.3203125 129.2890625 179.125 130.625 C178.40570313 131.07101563 177.68640625 131.51703125 176.9453125 131.9765625 C175 133 175 133 173 133 C173 133.66 173 134.32 173 135 C171.13671875 136.5078125 171.13671875 136.5078125 168.6875 138.125 C167.88699219 138.66382813 167.08648437 139.20265625 166.26171875 139.7578125 C164 141 164 141 161 141 C161 141.66 161 142.32 161 143 C160.34 143 159.68 143 159 143 C159 143.66 159 144.32 159 145 C158.05125 145.61875 157.1025 146.2375 156.125 146.875 C153.04910632 148.9666077 152.39437328 149.76451248 151 153 C151.55236328 153.06993164 152.10472656 153.13986328 152.67382812 153.21191406 C163.12900649 154.55887366 173.24423259 156.17346202 183.43359375 158.890625 C189.45859124 160.42228602 195.57604815 161.50089225 201.6875 162.625 C203.36223389 162.9341333 203.36223389 162.9341333 205.07080078 163.24951172 C211.84041437 164.47862872 218.61833694 165.57089719 225.42895508 166.54833984 C228 167 228 167 230 168 C232.77117606 168.35044628 235.53383845 168.66077733 238.3125 168.9375 C250.68211366 170.17553792 262.89998353 172.26866403 275.125 174.5 C276.32898438 174.71269531 277.53296875 174.92539063 278.7734375 175.14453125 C280.49820313 175.45970703 280.49820313 175.45970703 282.2578125 175.78125 C283.2905127 175.96751953 284.32321289 176.15378906 285.38720703 176.34570312 C288 177 288 177 291 179 C290.7421875 180.859375 290.7421875 180.859375 290 183 C288.2578125 184.265625 288.2578125 184.265625 286.125 185.25 C285.42632812 185.58515625 284.72765625 185.9203125 284.0078125 186.265625 C282 187 282 187 279 187 C279 187.66 279 188.32 279 189 C268.54624798 194.40803859 258.18981539 199.27006154 247 203 C247 203.66 247 204.32 247 205 C244.09399739 206.25664978 242.20395416 207 239 207 C238.67 207.99 238.34 208.98 238 210 C236.68 210 235.36 210 234 210 C234 210.66 234 211.32 234 212 C232.3962669 212.64690922 230.79199694 213.29248764 229.1875 213.9375 C228.29417969 214.29714844 227.40085938 214.65679687 226.48046875 215.02734375 C224.6729091 215.73613486 222.84192591 216.3860247 221 217 C221 217.66 221 218.32 221 219 C219.70990357 219.50403768 218.41786211 220.00309926 217.125 220.5 C216.04605469 220.91765625 216.04605469 220.91765625 214.9453125 221.34375 C213 222 213 222 211 222 C211 222.66 211 223.32 211 224 C209.73308493 224.67408308 208.46129251 225.33900497 207.1875 226 C206.47980469 226.37125 205.77210938 226.7425 205.04296875 227.125 C203 228 203 228 200 228 C200 228.66 200 229.32 200 230 C194.1245672 233.37863948 188.64951729 236.52232949 182 238 C182 238.66 182 239.32 182 240 C175.375 243 175.375 243 172 243 C171.67 243.99 171.34 244.98 171 246 C168.39757586 247.64820195 167.13751221 248 164 248 C163.67 248.99 163.34 249.98 163 251 C161.28515625 252.2109375 161.28515625 252.2109375 159.0625 253.375 C158.25425781 253.80296875 157.44601563 254.2309375 156.61328125 254.671875 C153.16344142 256.42515683 149.70349428 258.15638343 146.23046875 259.86328125 C143.84252828 261.04212057 143.84252828 261.04212057 141.0625 262.8125 C139 264 139 264 136 264 C135.67 264.99 135.34 265.98 135 267 C131.78715662 268.88579937 129.75366417 270 126 270 C125.67 270.99 125.34 271.98 125 273 C122.8828125 274.359375 122.8828125 274.359375 120.125 275.75 C114.94306477 278.44596107 110.08166291 281.45376146 105.21484375 284.6796875 C103 286 103 286 101 286 C101 286.66 101 287.32 101 288 C100.34 288 99.68 288 99 288 C99 288.66 99 289.32 99 290 C98.01 290.66 97.02 291.32 96 292 C94.74850925 294.51169258 93.62908314 296.97465718 92.5625 299.5625 C91.94411139 301.01957411 91.32562248 302.47660565 90.70703125 303.93359375 C90.26544678 304.98716064 90.26544678 304.98716064 89.81494141 306.06201172 C87.4004697 311.80379615 84.84273271 317.45667121 82 323 C81.34 323 80.68 323 80 323 C79.90565674 323.5971582 79.81131348 324.19431641 79.71411133 324.80957031 C78.52358577 331.55392051 76.39340336 337.47803121 73.6875 343.75 C72.87128122 345.68908868 72.0574729 347.62919378 71.24609375 349.5703125 C70.85663574 350.50133789 70.46717773 351.43236328 70.06591797 352.39160156 C68.24821987 356.83967451 66.68863166 361.36468505 65.109375 365.90234375 C62.61434417 372.86910237 59.65693212 379.62375007 56.5 386.3125 C53.40949462 393.00368943 51.22466077 399.98521859 49 407 C48.34 407 47.68 407 47 407 C46.89042969 407.66386719 46.78085937 408.32773437 46.66796875 409.01171875 C45.77138172 414.00490666 44.81549744 417.71554737 42 422 C41.29329272 424.69254991 41.29329272 424.69254991 41 427 C40.34 427 39.68 427 39 427 C38.89429688 427.99257813 38.78859375 428.98515625 38.6796875 430.0078125 C38.07666383 434.21628299 36.6894576 437.93993679 35.125 441.875 C34.57554069 443.29377492 34.02735161 444.71304247 33.48046875 446.1328125 C33.09060791 447.14069824 33.09060791 447.14069824 32.69287109 448.16894531 C31.87063286 450.34187934 31.13919291 452.53540849 30.4375 454.75 C29.30784004 458.2526143 27.93479889 461.61097948 26.5 465 C23.97637818 470.96423535 21.85638823 476.93662007 20.11328125 483.171875 C18.8151563 487.63560291 17.35864347 492.03271161 15.875 496.4375 C15.59785156 497.26443359 15.32070312 498.09136719 15.03515625 498.94335938 C14.35815094 500.9627028 13.67926921 502.98141698 13 505 C12.34 505 11.68 505 11 505 C10.96261719 505.556875 10.92523438 506.11375 10.88671875 506.6875 C10.46681307 511.56169926 9.55556107 515.61810988 7.69921875 520.13671875 C6.73519305 522.70565875 6.33922264 525.28621892 6 528 C5.34 528 4.68 528 4 528 C3.814375 529.5778125 3.814375 529.5778125 3.625 531.1875 C3.08859218 534.45958771 2.36119965 537.00536076 1 540 C0.67 540 0.34 540 0 540 C0 361.8 0 183.6 0 0 Z " fill="#010101" transform="translate(0,0)"/>
<path d="M0 0 C145.2 0 290.4 0 440 0 C440 122.1 440 244.2 440 370 C437 369 437 369 435 366 C433.05167065 364.99831469 433.05167065 364.99831469 430.875 364.3125 C430.15054687 364.06113281 429.42609375 363.80976563 428.6796875 363.55078125 C428.12539062 363.36902344 427.57109375 363.18726563 427 363 C427 362.34 427 361.68 427 361 C425.95199219 360.61134766 425.95199219 360.61134766 424.8828125 360.21484375 C421.71818539 358.88124073 418.84174776 357.291244 415.875 355.5625 C414.84117187 354.96566406 413.80734375 354.36882812 412.7421875 353.75390625 C410.44121721 352.28220303 408.88261617 350.9199485 407 349 C405.10328045 347.87154892 405.10328045 347.87154892 403.0625 346.9375 C402.39347656 346.61652344 401.72445313 346.29554688 401.03515625 345.96484375 C400.36355469 345.64644531 399.69195313 345.32804687 399 345 C397.66528163 344.33611062 396.33154124 343.67023888 395 343 C395 342.34 395 341.68 395 341 C394.278125 340.71125 393.55625 340.4225 392.8125 340.125 C390.20833333 339.08333333 387.60416667 338.04166667 385 337 C385 336.34 385 335.68 385 335 C383.69675781 334.61328125 383.69675781 334.61328125 382.3671875 334.21875 C378.94125685 332.97873798 376.1890832 331.45968465 373.125 329.5 C372.15820312 328.8915625 371.19140625 328.283125 370.1953125 327.65625 C369.47085937 327.1096875 368.74640625 326.563125 368 326 C368 325.34 368 324.68 368 324 C367.071875 323.71125 366.14375 323.4225 365.1875 323.125 C362 322 362 322 359 320 C359 319.34 359 318.68 359 318 C358.195625 317.87625 357.39125 317.7525 356.5625 317.625 C355.716875 317.41875 354.87125 317.2125 354 317 C353.67 316.34 353.34 315.68 353 315 C352.401875 314.87625 351.80375 314.7525 351.1875 314.625 C349 314 349 314 347.32421875 312.2109375 C344.41942935 309.44772607 341.1703152 307.78661553 337.625 306 C332.86776961 303.57400203 328.4478211 300.97375935 324 298 C323.01 297.67 322.02 297.34 321 297 C321 296.34 321 295.68 321 295 C320.34 295 319.68 295 319 295 C319 294.34 319 293.68 319 293 C317.7625 292.6596875 317.7625 292.6596875 316.5 292.3125 C312.33490514 290.75058943 308.4999057 288.77149893 305 286 C305 285.34 305 284.68 305 284 C304.34 284 303.68 284 303 284 C303 283.34 303 282.68 303 282 C302.113125 281.90203125 301.22625 281.8040625 300.3125 281.703125 C296.76241763 280.94956978 294.89826266 279.88653978 292 277.75 C290.7934375 276.87601562 290.7934375 276.87601562 289.5625 275.984375 C288.716875 275.32953125 287.87125 274.6746875 287 274 C285.37578125 273.00033203 285.37578125 273.00033203 283.71875 271.98046875 C281.65234591 270.22733682 281.06242836 269.29347332 280.4921875 266.61279297 C280.33089159 263.57416903 280.37837044 260.60300853 280.5 257.5625 C280.53287109 255.92003296 280.53287109 255.92003296 280.56640625 254.24438477 C280.85213776 243.45413796 281.80731007 232.7235604 283 222 C280.61231771 221.0390523 278.22443479 220.0847151 275.81640625 219.17578125 C266.50559194 215.60959414 257.51770589 211.18059521 249 206 C242.52233556 202.3080669 236.24582953 198.8112643 229.078125 196.6875 C225.52130366 195.51080722 222.30863929 193.74455526 219 192 C219 191.34 219 190.68 219 190 C218.15179687 189.90332031 217.30359375 189.80664062 216.4296875 189.70703125 C212.55828177 188.90893964 209.62838518 187.50941635 206.125 185.6875 C205.50931152 185.37135742 204.89362305 185.05521484 204.25927734 184.72949219 C202.5024987 183.82679961 200.75108151 182.91369505 199 182 C194.40896831 179.62250145 189.89848652 177.54092472 185.03125 175.79296875 C181.56244438 174.4388004 178.3047279 172.71137695 175 171 C175 170.34 175 169.68 175 169 C174.27079346 168.87761963 173.54158691 168.75523926 172.7902832 168.62915039 C170.05306366 168.01196474 167.87522363 167.15061821 165.35546875 165.93359375 C164.51435547 165.53076172 163.67324219 165.12792969 162.80664062 164.71289062 C161.94232422 164.29201172 161.07800781 163.87113281 160.1875 163.4375 C159.30384766 163.01275391 158.42019531 162.58800781 157.50976562 162.15039062 C155.33735663 161.10528576 153.16760043 160.05503238 151 159 C151 158.34 151 157.68 151 157 C150.29875 156.87625 149.5975 156.7525 148.875 156.625 C145.80364682 155.95731453 142.9325642 155.13303617 140 154 C139.67 153.34 139.34 152.68 139 152 C138.01 151.67 137.02 151.34 136 151 C134.97265625 148.078125 134.97265625 148.078125 134.0625 144.25 C133.72762335 142.88483487 133.39033395 141.5202596 133.05078125 140.15625 C132.8801416 139.46402344 132.70950195 138.77179688 132.53369141 138.05859375 C131.44420109 133.85613156 130.06972417 129.73868551 128.734375 125.609375 C128 123 128 123 128 120 C127.34 120 126.68 120 126 120 C125.03857983 117.79296628 124.08080463 115.58446467 123.125 113.375 C122.85558594 112.75753906 122.58617187 112.14007813 122.30859375 111.50390625 C118 101.52057927 118 101.52057927 118 98 C117.34 98 116.68 98 116 98 C114.4921875 96.13671875 114.4921875 96.13671875 112.875 93.6875 C112.33617187 92.88699219 111.79734375 92.08648437 111.2421875 91.26171875 C110 89 110 89 110 86 C109.34 86 108.68 86 108 86 C106.95389951 84.3618756 105.96124435 82.68931556 105 81 C95.79546904 67.95234013 83.58538721 56.72507193 71 47 C70.19820312 46.35417969 69.39640625 45.70835938 68.5703125 45.04296875 C65.24343282 42.38258517 61.97729788 39.88500615 58.25 37.8125 C55.18579359 36.10361565 52.73023045 34.18418436 50 32 C47.70120661 30.59277218 45.36387219 29.29781219 43 28 C43 27.34 43 26.68 43 26 C42.46375 25.9175 41.9275 25.835 41.375 25.75 C38.15200808 24.73221308 35.76940745 22.92162966 33 21 C30.4777732 19.46205683 27.9399044 17.96565965 25.375 16.5 C23 15 23 15 21.65234375 13.52734375 C19.62837335 11.65648695 17.77576103 10.98886685 15.1875 10.0625 C11.03568772 8.48517394 7.62882509 6.59201792 4 4 C2.6808418 3.30570621 1.35350594 2.62469505 0 2 C0 1.34 0 0.68 0 0 Z " fill="#000000" transform="translate(616,0)"/>
<path d="M0 0 C3.08489426 1.37568462 5.21350786 2.95694078 7.6015625 5.3359375 C8.25640625 5.98820313 8.91125 6.64046875 9.5859375 7.3125 C10.25882812 7.993125 10.93171875 8.67375 11.625 9.375 C12.305625 10.04789063 12.98625 10.72078125 13.6875 11.4140625 C14.33976562 12.06890625 14.99203125 12.72375 15.6640625 13.3984375 C16.25654785 13.99317871 16.8490332 14.58791992 17.45947266 15.20068359 C19.03759575 17.04391136 19.95947703 18.82084516 21 21 C22.63502936 22.58558381 22.63502936 22.58558381 24.5625 24.0625 C29.76506913 28.46539756 33.80732545 33.65378537 38 39 C42.15567072 44.29421065 46.35608817 49.44008418 50.9375 54.375 C55.23792288 59.04365481 59.04561929 63.9315263 62.796875 69.046875 C64.89238361 71.85574824 67.07096203 74.5569292 69.3125 77.25 C73.53903233 82.36012794 77.51970204 87.62765184 81.47875977 92.94506836 C84.69608465 97.26609094 87.95103004 101.55354967 91.25 105.8125 C97.87942197 114.398445 104.1487753 123.15299429 110.1171875 132.2109375 C111.75960288 134.64389306 113.46223339 136.98570828 115.25 139.3125 C122 148.14651639 122 148.14651639 122 152 C122.99 152.33 123.98 152.66 125 153 C135 166.34090909 135 166.34090909 135 172 C135.66 172 136.32 172 137 172 C141 178.625 141 178.625 141 182 C141.66 182 142.32 182 143 182 C144.60451041 184.3259414 146.06707189 186.63384708 147.5 189.0625 C147.90347656 189.71927734 148.30695313 190.37605469 148.72265625 191.05273438 C151.25594093 195.2957772 152.84974257 199.19267412 154 204 C154.66 204 155.32 204 156 204 C163 217.51908397 163 217.51908397 163 224 C163.66 224 164.32 224 165 224 C166.25664978 226.90600261 167 228.79604584 167 232 C167.66 232 168.32 232 169 232 C183.45572688 268.96006359 183.45572688 268.96006359 185.5625 287.4375 C185.86597391 290.92550198 185.86597391 290.92550198 186.96484375 293.80859375 C188.37007072 298.14093502 188.8495603 302.47252444 189.4375 306.9765625 C189.80276255 309.87745254 189.80276255 309.87745254 190.98193359 311.69482422 C192.44147187 314.9996109 192.58282454 318.34702597 192.8515625 321.90625 C192.91532074 322.66796509 192.97907898 323.42968018 193.04476929 324.21447754 C193.24589604 326.64242468 193.43538736 329.07112948 193.625 331.5 C193.75969713 333.13417405 193.89510609 334.76828959 194.03125 336.40234375 C195 348.21737186 195 348.21737186 195 353 C155.4 353 115.8 353 75 353 C75 346.2634002 75 346.2634002 76.27734375 342.390625 C76.67663086 341.13378906 76.67663086 341.13378906 77.08398438 339.8515625 C77.64798724 338.1324508 78.21307191 336.41369359 78.77929688 334.6953125 C80.43138319 329.48825491 81.34077611 324.66415254 81.76000977 319.22045898 C82.07493395 316.30668946 83.04610298 313.76700276 84 311 C84.76668476 307.24606772 85.37999544 303.46807469 86 299.6875 C87.86955363 288.41905763 87.86955363 288.41905763 89.09375 283.2421875 C89.9979054 279.30019359 90.33115562 275.48554391 90.5 271.4375 C90.76054762 266.18179471 91.21071064 261.02960813 91.9375 255.8125 C94.17204044 239.22729138 95.11944036 222.35123456 95.375 205.625 C95.40094238 204.7469873 95.42688477 203.86897461 95.45361328 202.96435547 C95.47093733 197.07995426 94.16181039 193.93642334 91 189 C91 188.01 91 187.02 91 186 C90.34 186 89.68 186 89 186 C88.32845067 184.71086513 87.66291141 183.41859796 87 182.125 C86.62875 181.40570312 86.2575 180.68640625 85.875 179.9453125 C85 178 85 178 85 176 C84.34 176 83.68 176 83 176 C82.67386719 175.33613281 82.34773438 174.67226563 82.01171875 173.98828125 C79.26958181 168.43263809 79.26958181 168.43263809 76.1875 163.0625 C75 161 75 161 75 158 C74.34 158 73.68 158 73 158 C72.505 155.525 72.505 155.525 72 153 C71.34 153 70.68 153 70 153 C68.74335022 150.09399739 68 148.20395416 68 145 C67.34 145 66.68 145 66 145 C66 144.01 66 143.02 66 142 C65.34 142 64.68 142 64 142 C62.99267601 140.06629769 61.99436712 138.12789694 61 136.1875 C60.1646875 134.56908203 60.1646875 134.56908203 59.3125 132.91796875 C58 130 58 130 58 127 C57.34 127 56.68 127 56 127 C54.49373883 123.87797994 52.99606757 120.75191601 51.5 117.625 C51.07074219 116.73554687 50.64148438 115.84609375 50.19921875 114.9296875 C49.79316406 114.07890625 49.38710938 113.228125 48.96875 112.3515625 C48.40317383 111.17327881 48.40317383 111.17327881 47.82617188 109.97119141 C47 108 47 108 47 106 C46.34 106 45.68 106 45 106 C43.74335022 103.09399739 43 101.20395416 43 98 C42.01 97.67 41.02 97.34 40 97 C39.04858398 95.42114258 39.04858398 95.42114258 38.24609375 93.39453125 C37.94896484 92.65783203 37.65183594 91.92113281 37.34570312 91.16210938 C37.04599609 90.38673828 36.74628906 89.61136719 36.4375 88.8125 C36.13392578 88.05646484 35.83035156 87.30042969 35.51757812 86.52148438 C33.87253859 82.38917374 32.35827533 78.23700811 31 74 C30.34 74 29.68 74 29 74 C27.23537317 70.91190305 27 69.76687864 27 66 C26.34 66 25.68 66 25 66 C21.97166544 58.56965335 19.01108625 51.14227449 16.375 43.5625 C15.02907906 39.71577112 13.63205623 36.05267275 11.75 32.4375 C10.2470219 29.48522159 9.40685395 27.25483161 9 24 C8.34 24 7.68 24 7 24 C5.82307643 20.75362269 4.66027726 17.5023602 3.5 14.25 C3.16613281 13.32960938 2.83226562 12.40921875 2.48828125 11.4609375 C2.17246094 10.57148437 1.85664063 9.68203125 1.53125 8.765625 C1.23798828 7.94868164 0.94472656 7.13173828 0.64257812 6.29003906 C0 4 0 4 0 0 Z " fill="#030303" transform="translate(408,639)"/>
<path d="M0 0 C0.84755859 0.00451172 1.69511719 0.00902344 2.56835938 0.01367188 C4.6081053 0.02519586 6.64781363 0.04311544 8.6875 0.0625 C9.6775 3.0325 10.6675 6.0025 11.6875 9.0625 C12.3475 9.0625 13.0075 9.0625 13.6875 9.0625 C14.07421875 10.04089844 14.4609375 11.01929688 14.859375 12.02734375 C17.38459895 18.39243657 19.93511574 24.72458438 22.7578125 30.96484375 C24.52351936 34.94881258 26.11530568 38.99898237 27.6875 43.0625 C28.06390625 44.031875 28.4403125 45.00125 28.828125 46 C29.19421875 46.969375 29.5603125 47.93875 29.9375 48.9375 C30.44023438 50.26394531 30.44023438 50.26394531 30.953125 51.6171875 C31.6875 54.0625 31.6875 54.0625 31.6875 58.0625 C27.52218831 57.44882609 24.33984354 56.01619774 20.625 54.0625 C15.84350671 51.54985429 15.84350671 51.54985429 10.6875 50.0625 C10.6875 49.4025 10.6875 48.7425 10.6875 48.0625 C9.635625 47.93875 8.58375 47.815 7.5 47.6875 C4.22791229 47.15109218 1.68213924 46.42369965 -1.3125 45.0625 C-1.3125 44.4025 -1.3125 43.7425 -1.3125 43.0625 C-2.6325 43.0625 -3.9525 43.0625 -5.3125 43.0625 C-5.3125 42.4025 -5.3125 41.7425 -5.3125 41.0625 C-6.281875 40.98 -7.25125 40.8975 -8.25 40.8125 C-12.98369101 40.1625875 -17.05234407 38.13944677 -21.3125 36.0625 C-21.3125 35.4025 -21.3125 34.7425 -21.3125 34.0625 C-22.01761719 33.94003906 -22.72273437 33.81757813 -23.44921875 33.69140625 C-26.46753183 33.02844799 -29.23139442 32.08074425 -32.125 31 C-33.10082031 30.63777344 -34.07664062 30.27554687 -35.08203125 29.90234375 C-35.81808594 29.62519531 -36.55414062 29.34804688 -37.3125 29.0625 C-37.3125 28.4025 -37.3125 27.7425 -37.3125 27.0625 C-38.6325 27.0625 -39.9525 27.0625 -41.3125 27.0625 C-41.3125 26.4025 -41.3125 25.7425 -41.3125 25.0625 C-42.01761719 24.94003906 -42.72273437 24.81757813 -43.44921875 24.69140625 C-46.46753183 24.02844799 -49.23139442 23.08074425 -52.125 22 C-53.10082031 21.63777344 -54.07664062 21.27554687 -55.08203125 20.90234375 C-55.81808594 20.62519531 -56.55414062 20.34804688 -57.3125 20.0625 C-57.3125 19.4025 -57.3125 18.7425 -57.3125 18.0625 C-58.6325 18.0625 -59.9525 18.0625 -61.3125 18.0625 C-61.3125 17.4025 -61.3125 16.7425 -61.3125 16.0625 C-63.9525 15.7325 -66.5925 15.4025 -69.3125 15.0625 C-69.3125 14.4025 -69.3125 13.7425 -69.3125 13.0625 C-70.3025 12.98 -71.2925 12.8975 -72.3125 12.8125 C-76.03813257 12.28133552 -78.88390008 10.94780937 -82.1796875 9.18359375 C-85.79984847 7.28068863 -89.56401525 5.69378503 -93.3125 4.0625 C-93.3125 3.4025 -93.3125 2.7425 -93.3125 2.0625 C-92.46440262 2.05219254 -91.61630524 2.04188507 -90.74250793 2.03126526 C-82.69676755 1.93273418 -74.65109082 1.83014802 -66.60545826 1.72316074 C-62.47047591 1.66831447 -58.33548619 1.61496202 -54.20043945 1.56518555 C-50.19978754 1.51696921 -46.19920803 1.46461733 -42.19864464 1.40955925 C-40.68268355 1.38939151 -39.16670283 1.37064123 -37.65070534 1.35342598 C-29.44014171 1.25920257 -21.28775016 1.01105294 -13.10314941 0.27966309 C-8.73389167 -0.06034433 -4.37953148 -0.0460258 0 0 Z " fill="#070707" transform="translate(804.3125,269.9375)"/>
<path d="M0 0 C3.3 0 6.6 0 10 0 C6.87378374 3.39417765 4.43458973 5.6062718 0 7 C0 4.69 0 2.38 0 0 Z " fill="#1C1C1B" transform="translate(0,0)"/>
<path d="M0 0 C2.25390625 1.5234375 2.25390625 1.5234375 4 3 C3.35933594 2.84660156 2.71867187 2.69320312 2.05859375 2.53515625 C-3.30754556 1.47262725 -3.30754556 1.47262725 -8.15234375 3.4921875 C-10.01312654 5.40177282 -10.01312654 5.40177282 -11.625 7.43359375 C-12.305625 8.20896484 -12.305625 8.20896484 -13 9 C-13.66 9 -14.32 9 -15 9 C-15 8.34 -15 7.68 -15 7 C-14.34 7 -13.68 7 -13 7 C-12.731875 6.401875 -12.46375 5.80375 -12.1875 5.1875 C-9.32147557 -0.09201869 -5.99229376 -1.1731554 0 0 Z " fill="#494949" transform="translate(491,188)"/>
<path d="M0 0 C0.33 0 0.66 0 1 0 C3.07434732 5.11236781 3.24424065 9.46330893 3.125 14.875 C3.11597656 15.65875 3.10695312 16.4425 3.09765625 17.25 C3.07428063 19.16680055 3.03841653 21.08344191 3 23 C2.67 23 2.34 23 2 23 C-0.29612756 7.25512528 -0.29612756 7.25512528 0 0 Z " fill="#514F4F" transform="translate(148,621)"/>
<path d="M0 0 C0.33 0 0.66 0 1 0 C1 5.61 1 11.22 1 17 C0.34 17 -0.32 17 -1 17 C-1.33 19.97 -1.66 22.94 -2 26 C-2.94551552 22.21793794 -3.0861996 21.49253419 -2.125 18.0625 C-0.65239441 12.1123774 -0.35839044 6.10206881 0 0 Z " fill="#5E5C5B" transform="translate(990,574)"/>
<path d="M0 0 C0.33 0.66 0.66 1.32 1 2 C0.34 2 -0.32 2 -1 2 C-1.66 3.32 -2.32 4.64 -3 6 C-0.03 6.99 2.94 7.98 6 9 C6 9.33 6 9.66 6 10 C-2.57142857 10.28571429 -2.57142857 10.28571429 -6 8 C-5.65120368 4.74456771 -4.97866739 3.98126893 -2.4375 1.75 C-1.633125 1.1725 -0.82875 0.595 0 0 Z " fill="#ACAEAB" transform="translate(157,145)"/>
<path d="M0 0 C0.66 0 1.32 0 2 0 C0.82403413 2.88646167 -0.23291839 4.20519001 -2.625 6.3125 C-5.37334995 8.88197404 -5.37334995 8.88197404 -5.3125 12.8125 C-5.209375 13.864375 -5.10625 14.91625 -5 16 C-5.66 16 -6.32 16 -7 16 C-7.24246014 13.13897036 -7.43289436 10.80598992 -7 8 C-4.625 5.1875 -4.625 5.1875 -2 3 C-1.34 2.01 -0.68 1.02 0 0 Z " fill="#C5C4C4" transform="translate(519,267)"/>
<path d="M0 0 C3.875 1.75 3.875 1.75 5 4 C4.34 4 3.68 4 3 4 C3.99 7.96 4.98 11.92 6 16 C4 15 4 15 2.9296875 12.3828125 C2.58164062 11.30773437 2.23359375 10.23265625 1.875 9.125 C1.52179688 8.05507813 1.16859375 6.98515625 0.8046875 5.8828125 C0 3 0 3 0 0 Z " fill="#848585" transform="translate(405,635)"/>
<path d="M0 0 C5.91492272 0.45224761 11.35199888 1.1582605 17 3 C17 3.33 17 3.66 17 4 C11.9697924 3.47462276 6.98114761 2.89405214 2 2 C2 2.66 2 3.32 2 4 C1.34 4 0.68 4 0 4 C0 2.68 0 1.36 0 0 Z " fill="#807F80" transform="translate(957,417)"/>
<path d="M0 0 C5.42096702 1.35524176 10.0778687 3.36634013 15 6 C12.3333581 7.33332095 10.83319697 6.67102033 8 6 C8 5.34 8 4.68 8 4 C6.68 4 5.36 4 4 4 C4 3.34 4 2.68 4 2 C2.68 2 1.36 2 0 2 C0 1.34 0 0.68 0 0 Z " fill="#B4B3B0" transform="translate(846,197)"/>
<path d="M0 0 C10.55808656 1.74259681 10.55808656 1.74259681 15 5 C12.36749612 6.31625194 11.19820944 5.74813658 8.375 5.0625 C7.55773437 4.86785156 6.74046875 4.67320313 5.8984375 4.47265625 C4.95871094 4.23869141 4.95871094 4.23869141 4 4 C4 3.34 4 2.68 4 2 C2.68 1.67 1.36 1.34 0 1 C0 0.67 0 0.34 0 0 Z " fill="#626262" transform="translate(490,85)"/>
<path d="M0 0 C2.76276177 0.52268466 5.3260876 1.10869587 8 2 C8.33 1.34 8.66 0.68 9 0 C10.5 1.375 10.5 1.375 12 3 C12 3.66 12 4.32 12 5 C7.43545749 4.45660208 4.0271824 3.20536179 0 1 C0 0.67 0 0.34 0 0 Z " fill="#3F3F40" transform="translate(528,100)"/>
<path d="M0 0 C0.99 0 1.98 0 3 0 C2.625 2.9375 2.625 2.9375 2 6 C1.01 6.495 1.01 6.495 0 7 C0 6.01 0 5.02 0 4 C-0.66 4 -1.32 4 -2 4 C-2 4.66 -2 5.32 -2 6 C-2.66 5.67 -3.32 5.34 -4 5 C-3.67 4.34 -3.34 3.68 -3 3 C-2.34 3 -1.68 3 -1 3 C-0.67 2.01 -0.34 1.02 0 0 Z " fill="#505152" transform="translate(270,364)"/>
<path d="M0 0 C0.33 0.99 0.66 1.98 1 3 C-1.64 5.31 -4.28 7.62 -7 10 C-7 9.01 -7 8.02 -7 7 C-6.38125 6.7525 -5.7625 6.505 -5.125 6.25 C-2.62985717 4.78226892 -2.09872287 3.62003145 -1 1 C-0.67 0.67 -0.34 0.34 0 0 Z " fill="#4F5151" transform="translate(463,209)"/>
<path d="M0 0 C2.97 0 5.94 0 9 0 C6 3 6 3 2.8125 3.1875 C1.4203125 3.0946875 1.4203125 3.0946875 0 3 C0 2.01 0 1.02 0 0 Z " fill="#282927" transform="translate(0,0)"/>
<path d="M0 0 C0.33 0 0.66 0 1 0 C1.16682272 4.92127034 1.24828052 8.50343896 -1 13 C-1.33 13 -1.66 13 -2 13 C-2.23509196 8.18061476 -1.45184478 4.53701494 0 0 Z " fill="#7A7776" transform="translate(986,604)"/>
<path d="M0 0 C0.33 0 0.66 0 1 0 C1.29296875 6.0546875 1.29296875 6.0546875 1 8 C0.01 8.66 -0.98 9.32 -2 10 C-1.46274105 6.62294375 -0.88935377 3.303314 0 0 Z " fill="#636160" transform="translate(982,624)"/>
<path d="M0 0 C0.66 0 1.32 0 2 0 C2 1.32 2 2.64 2 4 C3.32 4.33 4.64 4.66 6 5 C4.02 5.33 2.04 5.66 0 6 C0 4.02 0 2.04 0 0 Z " fill="#4D4D4D" transform="translate(822,585)"/>
<path d="M0 0 C0.66 0 1.32 0 2 0 C0.70700306 2.88437779 -0.65941363 4.87219421 -3 7 C-3.66 6.67 -4.32 6.34 -5 6 C-3.625 4 -3.625 4 -2 2 C-1.34 2 -0.68 2 0 2 C0 1.34 0 0.68 0 0 Z " fill="#3E4040" transform="translate(832,571)"/>
</svg>
